<?xml version="1.0" encoding="utf-8"?>
<!-- Svg Vector Icons : http://www.onlinewebfonts.com/icon -->
<!DOCTYPE svg PUBLIC "-//W3C//DTD SVG 1.1//EN" "http://www.w3.org/Graphics/SVG/1.1/DTD/svg11.dtd">
<svg version="1.1" xmlns="http://www.w3.org/2000/svg" xmlns:xlink="http://www.w3.org/1999/xlink" x="0px" y="0px" viewBox="0 0 1000 1000" enable-background="new 0 0 1000 1000" xml:space="preserve">
<metadata> Svg Vector Icons : http://www.onlinewebfonts.com/icon </metadata>
<g><g fill ="#FFF" transform="translate(0.000000,511.000000) scale(0.100000,-0.100000)"><path d="M1487.9,4737.4c-216.4-71-476.7-311-571.3-530.8c-104.8-246.8-84.5-625.4,43.9-848.6c327.9-557.8,1078.5-635.6,1521.3-162.3c544.3,581.5,162.3,1531.5-635.6,1578.8C1724.5,4781.3,1579.2,4767.8,1487.9,4737.4z M2082.9,4453.4c267.1-118.3,409.1-378.7,382-699.8c-33.8-419.2-453-699.8-865.5-584.9c-270.5,74.4-513.9,388.8-513.9,659.2c0,229.9,209.6,551.1,422.6,642.3C1653.5,4534.5,1924,4527.8,2082.9,4453.4z"/><path d="M4009.9,3266.8c-980.4-209.6-1866.2-784.3-2420.6-1561.9c-165.7-233.3-537.5-943.2-537.5-1031.1c0-20.3-47.3-67.6-108.2-104.8C734,437.1,439.9,109.1,331.7-110.6c-250.2-507.1-71-1068.3,480.1-1507.8c162.3-128.5,192.7-175.8,307.7-469.9c128.5-324.6,128.5-327.9,91.3-584.9c-64.2-466.5,60.8-902.6,338.1-1163c263.7-253.6,618.7-355,1092-321.2c277.2,23.7,294.1,20.3,568-98.1c155.5-67.6,429.4-162.3,608.5-213c300.9-81.2,382-87.9,987.2-87.9c615.3,0,682.9,6.7,997.3,91.3c405.7,115,939.8,361.7,1284.7,598.4c314.4,219.7,716.7,615.3,936.5,929.7c162.3,226.5,534.2,936.5,534.2,1021c0,20.3,50.7,71,111.6,108.2c196.1,118.3,527.4,497,622.1,703.2c233.3,503.7,30.4,1088.6-517.2,1504.4C8672,474.3,8590.8,552,8590.8,575.7c0,20.3-54.1,158.9-118.3,307.7l-118.3,270.5l37.2,273.8c71,507.1-57.4,919.6-371.9,1203.5c-243.4,219.8-456.4,280.6-983.8,284c-402.3,0-436.1,6.7-672.8,111.6c-476.7,209.6-831.7,280.6-1474,294.1C4415.6,3331,4260.1,3320.9,4009.9,3266.8z M5548.2,3009.8c946.6-196.1,1791.8-764.1,2332.7-1572l199.5-300.9l-54.1-175.8c-71-240-158.9-459.8-280.6-703.2L7644.2,58.4l-219.7,20.3c-277.2,27-480.1-30.4-659.2-182.6c-206.2-179.2-284-351.6-287.4-635.6c0-199.4,13.5-263.7,94.6-398.9c64.2-108.2,84.5-175.8,64.2-213c-40.6-71-655.9-693.1-909.4-916.2l-213-185.9l-801.2,13.5c-899.3,20.3-1335.4,71-2021.7,246.8c-500.3,128.5-872.2,267.1-1217.1,449.6c-213,115-240,138.6-277.2,273.9c-84.5,297.5-118.3,828.3-77.7,1206.9c91.3,845.2,426,1575.4,1004.1,2177.2c595,625.4,1291.4,993.9,2140,1132.6C4601.6,3104.5,5166.1,3087.6,5548.2,3009.8z M7711.8,2536.5c277.2-152.1,442.9-463.2,436.1-838.4v-172.4l-57.5,84.5c-30.4,43.9-158.9,206.2-284,355c-196.1,233.3-338.1,365.1-686.3,642.3c-64.2,50.7-50.7,54.1,172.4,40.6C7475.2,2637.9,7576.6,2610.9,7711.8,2536.5z M8330.5,528.3C8540.1-100.4,8560.4-922,8388-1571.1c-33.8-118.3-60.8-145.4-267.1-246.8c-459.8-233.3-1288-473.3-1906.7-554.5l-226.5-30.4l446.3,459.8c246.8,253.6,449.6,463.2,449.6,466.5s64.2-13.5,135.2-40.6c290.7-104.8,581.5-43.9,818.1,165.7c199.4,175.8,277.2,351.6,280.6,615.3c0,206.2-108.2,493.6-219.7,588.2c-40.6,33.8-27,81.1,81.2,297.5c71,145.4,155.5,334.7,189.3,422.6C8235.8,754.9,8256.1,748.1,8330.5,528.3z M892.9,48.3c-16.9-81.1-27-422.6-27-760.7v-615.3l-94.7,91.3c-50.7,47.3-138.6,179.2-192.7,290.8C406-604.2,453.4-299.9,734,38.1c67.6,84.5,135.2,152.1,152.1,152.1S906.4,126,892.9,48.3z M9037.1-306.7c91.3-189.3,101.4-236.7,84.5-415.8c-10.1-128.5-47.3-256.9-104.8-348.2c-91.3-162.3-284-378.7-307.6-355c-10.1,10.1,0,104.8,20.3,216.4c23.7,118.3,30.4,422.6,23.7,750.5l-13.5,547.7l94.6-91.3C8888.3-53.1,8979.6-191.7,9037.1-306.7z M7580-235.7c192.7-98.1,327.9-385.4,284-598.4c-87.9-412.5-581.5-598.4-912.8-344.8c-145.4,108.2-219.7,263.7-219.7,456.4C6731.4-303.3,7197.9-36.2,7580-235.7z M2167.4-2311.5c730.2-240,1487.5-365.1,2427.4-402.3l581.5-20.3l-412.4-277.2c-229.9-148.7-568-351.6-753.9-442.9c-355-175.8-889.1-378.7-1000.7-378.7c-169,0-781,497-1088.6,882.4c-179.2,223.1-564.6,875.6-564.6,956.7c0,10.1,94.7-27,209.6-84.5C1680.6-2135.7,1951.1-2240.5,2167.4-2311.5z M8185.1-2135.7c0-50.7-304.3-557.8-439.5-737c-206.2-263.7-645.7-672.8-916.2-845.2c-835-540.9-1795.2-726.9-2768.8-530.8c-256.9,50.7-639,169-686.3,209.6c-13.5,13.5,108.2,74.4,270.5,138.6c534.2,199.5,1163,568,1727.5,1000.7c216.4,169,304.3,216.3,392.2,216.3c500.4,0,1720.8,277.2,2227.9,507.1C8148-2101.9,8185.1-2095.1,8185.1-2135.7z M2022.1-3450.8c118.3-114.9,284-260.3,368.5-321.2l158.9-111.6l-155.5-10.1c-517.3-33.8-885.8,311-926.3,865.5l-20.3,260.3l182.6-236.7C1727.9-3133,1907.1-3335.8,2022.1-3450.8z"/><path d="M5433.2,2384.4c-182.6-142-64.2-436.1,172.4-436.1c74.4,0,128.5,27,175.8,87.9c94.7,118.3,87.9,233.3-13.5,334.7C5666.5,2472.3,5551.6,2479.1,5433.2,2384.4z"/><path d="M2478.5-185c-371.9-185.9-453-652.5-169-963.5c304.3-327.9,814.8-263.7,1004.1,128.5C3580.6-465.6,3026.1,85.5,2478.5-185z M2995.7-458.8c104.8-94.6,148.7-246.8,114.9-385.4c-37.2-135.2-128.5-216.4-280.6-240c-314.4-50.7-524,243.4-375.3,530.8c67.6,128.5,138.6,165.7,311,169C2863.9-384.5,2934.9-408.1,2995.7-458.8z"/><path d="M3698.9-1466.3c-148.8-60.8-192.7-290.7-77.8-405.7c148.8-148.7,439.5-33.8,439.5,175.8C4060.6-1523.8,3864.6-1398.7,3698.9-1466.3z"/><path d="M9280.5,3165.3c-37.2-13.5-111.6-74.4-158.9-135.2c-71-84.5-91.3-142-91.3-277.2c0-145.4,13.5-182.6,111.6-280.6c192.7-192.7,446.3-199.5,628.8-13.5C10108.8,2793.5,9726.7,3347.9,9280.5,3165.3z M9598.3,2884.7c50.7-40.6,54.1-199.5,0-253.6c-125.1-125.1-382,40.6-300.9,192.7C9368.4,2952.4,9480,2976,9598.3,2884.7z"/><path d="M8868.1,1725.1c-64.2-43.9-74.4-77.8-67.6-189.3c23.7-317.8,409.1-344.8,486.8-37.2C9338,1698.1,9050.6,1857,8868.1,1725.1z"/><path d="M196.5-2115.4c-155.5-118.3-115-409.1,64.2-453c216.4-54.1,398.9,131.8,317.8,327.9C510.9-2081.6,324.9-2020.7,196.5-2115.4z"/><path d="M9023.6-2612.3c-142-121.7-179.2-267.1-114.9-419.2C8983-3207.4,9081-3275,9273.7-3275c145.4,0,179.2,13.5,267.1,111.6c216.4,240.1,77.8,601.8-243.4,639C9158.8-2507.6,9128.4-2517.7,9023.6-2612.3z M9371.8-2838.9c30.4-37.2,33.8-67.6,6.8-108.2c-81.1-131.9-277.2-50.7-229.9,94.7C9175.7-2771.2,9307.6-2761.1,9371.8-2838.9z"/></g></g>
</svg>